<?xml version="1.0" encoding="UTF-8"?>
<svg xmlns="http://www.w3.org/2000/svg" width="512" height="512" viewBox="0 0 512 512">
  <!-- Gradient definitions -->
  <defs>
    <linearGradient id="shieldGradient" x1="0%" y1="0%" x2="100%" y2="100%">
      <stop offset="0%" style="stop-color:#3B82F6;stop-opacity:1" />
      <stop offset="100%" style="stop-color:#1E40AF;stop-opacity:1" />
    </linearGradient>
    <linearGradient id="taskGradient" x1="0%" y1="0%" x2="100%" y2="0%">
      <stop offset="0%" style="stop-color:#FFFFFF;stop-opacity:0.95" />
      <stop offset="100%" style="stop-color:#F1F5F9;stop-opacity:0.85" />
    </linearGradient>
    <linearGradient id="highlightGradient" x1="0%" y1="0%" x2="100%" y2="100%">
      <stop offset="0%" style="stop-color:#FFFFFF;stop-opacity:0.3" />
      <stop offset="100%" style="stop-color:#FFFFFF;stop-opacity:0.1" />
    </linearGradient>
    <!-- Enhanced shadow filter -->
    <filter id="dropShadow" x="-20%" y="-20%" width="140%" height="140%">
      <feDropShadow dx="2" dy="4" stdDeviation="4" flood-color="#0F172A" flood-opacity="0.3"/>
    </filter>
  </defs>
  
  <!-- Shield background with gradient and shadow -->
  <path d="M256 32L64 112v176c0 97.2 82.384 186.736 192 208c109.616-21.264 192-110.8 192-208V112L256 32z" 
        fill="url(#shieldGradient)" 
        stroke="#0F172A" 
        stroke-width="8"
        filter="url(#dropShadow)" />
  
  <!-- Modern task items with subtle gradient -->
  <rect x="136" y="152" width="240" height="40" rx="20" fill="url(#taskGradient)" opacity="0.95"/>
  <rect x="136" y="224" width="240" height="40" rx="20" fill="url(#taskGradient)" opacity="0.8"/>
  <rect x="136" y="296" width="240" height="40" rx="20" fill="url(#taskGradient)" opacity="0.65"/>
  
  <!-- Enhanced status indicators with better proportions -->
  <!-- Completed task -->
  <circle cx="104" cy="172" r="24" fill="#10B981" stroke="#FFFFFF" stroke-width="6"/>
  <path d="M92.8 172L100.8 180L115.2 160" stroke="white" stroke-width="9.6" stroke-linecap="round" stroke-linejoin="round"/>
  
  <!-- In progress task -->
  <circle cx="104" cy="244" r="24" fill="#F59E0B" stroke="#FFFFFF" stroke-width="6"/>
  <circle cx="104" cy="244" r="8" fill="white"/>
  
  <!-- Pending/blocked task -->
  <circle cx="104" cy="316" r="24" fill="#EF4444" stroke="#FFFFFF" stroke-width="6"/>
  <path d="M96 316H112" stroke="white" stroke-width="9.6" stroke-linecap="round"/>
  
  <!-- Subtle highlight overlay for depth -->
  <path d="M256 48L80 120v160c0 88 72 168 176 192c104-24 176-104 176-192V120L256 48z" 
        fill="url(#highlightGradient)" 
        stroke="none"/>
        
  <!-- Enhanced shield outline for definition -->
  <path d="M256 40L72 116v172c0 93.6 79.2 181.6 184 201.6c104.8-20 184-108 184-201.6V116L256 40z" 
        fill="none" 
        stroke="rgba(255,255,255,0.4)" 
        stroke-width="4"/>
</svg> 