<?xml version="1.0" encoding="UTF-8"?>
<svg xmlns="http://www.w3.org/2000/svg" width="32" height="32" viewBox="0 0 32 32">
  <!-- Gradient definitions -->
  <defs>
    <linearGradient id="shieldGradient" x1="0%" y1="0%" x2="100%" y2="100%">
      <stop offset="0%" style="stop-color:#3B82F6;stop-opacity:1" />
      <stop offset="100%" style="stop-color:#1E40AF;stop-opacity:1" />
    </linearGradient>
    <linearGradient id="taskGradient" x1="0%" y1="0%" x2="100%" y2="0%">
      <stop offset="0%" style="stop-color:#FFFFFF;stop-opacity:0.95" />
      <stop offset="100%" style="stop-color:#F1F5F9;stop-opacity:0.85" />
    </linearGradient>
  </defs>
  
  <!-- Shield background with gradient -->
  <path d="M16 2L4 7v11c0 6.075 5.149 11.671 12 13c6.851-1.329 12-6.925 12-13V7L16 2z" 
        fill="url(#shieldGradient)" 
        stroke="#0F172A" 
        stroke-width="0.5" />
  
  <!-- Modern task items with subtle gradient -->
  <rect x="8.5" y="9.5" width="15" height="2.5" rx="1.25" fill="url(#taskGradient)" opacity="0.95"/>
  <rect x="8.5" y="14" width="15" height="2.5" rx="1.25" fill="url(#taskGradient)" opacity="0.8"/>
  <rect x="8.5" y="18.5" width="15" height="2.5" rx="1.25" fill="url(#taskGradient)" opacity="0.65"/>
  
  <!-- Enhanced status indicators -->
  <circle cx="6.5" cy="10.75" r="1.5" fill="#10B981" stroke="#FFFFFF" stroke-width="0.5"/>
  <path d="M5.8 10.75L6.3 11.25L7.2 10" stroke="white" stroke-width="0.6" stroke-linecap="round" stroke-linejoin="round"/>
  
  <circle cx="6.5" cy="15.25" r="1.5" fill="#F59E0B" stroke="#FFFFFF" stroke-width="0.5"/>
  <circle cx="6.5" cy="15.25" r="0.5" fill="white"/>
  
  <circle cx="6.5" cy="19.75" r="1.5" fill="#EF4444" stroke="#FFFFFF" stroke-width="0.5"/>
  <path d="M6 19.75H7" stroke="white" stroke-width="0.6" stroke-linecap="round"/>
  
  <!-- Subtle highlight -->
  <path d="M16 3L5 7.5v10c0 5.5 4.5 10.5 11 11.8c6.5-1.3 11-6.3 11-11.8v-10L16 3z" 
        fill="none" 
        stroke="rgba(255,255,255,0.2)" 
        stroke-width="0.5"/>
</svg> 